# xmcd
#
# Track frame offsets: 
#        150
#        18322
#        33311
#        47227
#        61043
#        73309
#        89554
#        99012
#        114393
#        125491
#        141682
#        148243
#        154955
#        164409
#
# Disc length: 2286 seconds
#
# Revision: 0
# Processed by: cddbd v1.5.1PL0 Copyright (c) Steve Scherf et al.
# Submitted via: ExactAudioCopy v0.95a5
#
DISCID=cc08ec0e
DTITLE=Jim Reeves - The Unforgettable Jim Reeves Live
DYEAR=2003
DGENRE=Easy Listening
TTITLE0=Danny Boy
TTITLE1=I Was Just Walking Out The Door
TTITLE2=A Room Full Of Roses
TTITLE3=The Streets Of Laredo
TTITLE4=He'll Have To Go
TTITLE5=I Love You Because
TTITLE6=Bimbo
TTITLE7=Medley: Four Walls/Blue Canadian Rockies
TTITLE8=Yonder Comes A Sucker
TTITLE9=Adios Amigo
TTITLE10=I'm A Hit Again
TTITLE11=Something To Rock About
TTITLE12=Step Aside Shallow Water
TTITLE13=There's A Light Shining Through
EXTD=
EXTT0=
EXTT1=
EXTT2=
EXTT3=
EXTT4=
EXTT5=
EXTT6=
EXTT7=
EXTT8=
EXTT9=
EXTT10=
EXTT11=
EXTT12=
EXTT13=
PLAYORDER=
